<svg preserveAspectRatio="none" overflow="visible" style="display: block;" width="24" height="24" viewBox="0 0 24 24" fill="none" xmlns="http://www.w3.org/2000/svg">
<g id="HarmonyOS Icon">
<path id="Vector" d="M12.0044 20C19.0998 20 24 13.9044 24 12C24 10.0864 19.0911 4 12.0044 4C5.00548 4 0 10.0864 0 12C0 13.9044 4.9967 20 12.0044 20ZM12.0044 18.5251C6.21733 18.5251 1.53677 13.3162 1.53677 12C1.53677 10.8892 6.21733 5.47491 12.0044 5.47491C17.7651 5.47491 22.4632 10.8892 22.4632 12C22.4632 13.3162 17.7651 18.5251 12.0044 18.5251ZM12.0044 17.2182C14.7267 17.2182 16.9308 14.8752 16.9308 11.9814C16.9308 9.08753 14.7267 6.74447 12.0044 6.74447C9.28212 6.74447 7.06914 9.08753 7.06914 11.9814C7.06914 14.8752 9.28212 17.2182 12.0044 17.2182ZM12.0044 13.7269C11.0999 13.7269 10.371 12.9522 10.371 11.9907C10.371 11.0292 11.0999 10.2544 12.0044 10.2544C12.9089 10.2544 13.6377 11.0292 13.6377 11.9907C13.6377 12.9522 12.9089 13.7269 12.0044 13.7269Z" fill="currentColor" fill-opacity="0.8"/>
</g>
</svg>
