<svg preserveAspectRatio="none" overflow="visible" style="display: block;" width="24" height="24" viewBox="0 0 24 24" fill="none" xmlns="http://www.w3.org/2000/svg">
<g id="HarmonyOS Icon">
<path id="Union" d="M20.4473 3.01074C22.498 3.01075 23.5137 4.02638 23.5137 6.03809V17.9717C23.5137 19.9834 22.498 20.9892 20.4473 20.9893H3.55273C1.51173 20.9893 0.486341 19.9835 0.486328 17.9717V6.03809C0.486328 4.02637 1.51172 3.01074 3.55273 3.01074H20.4473ZM3.57227 4.58301C2.59571 4.58301 2.05859 5.11036 2.05859 6.12598V17.8838C2.05861 18.8995 2.59572 19.417 3.57227 19.417H20.4277C21.3945 19.417 21.9414 18.8995 21.9414 17.8838V6.12598C21.9414 5.11036 21.3945 4.58301 20.4277 4.58301H3.57227ZM19.7539 5.9209C20.3691 5.9209 20.6133 6.1748 20.6133 6.7998V17.21C20.6133 17.8349 20.3691 18.0889 19.7539 18.0889H17C16.3847 18.0889 16.1406 17.8349 16.1406 17.21V6.7998C16.1406 6.17481 16.3847 5.92091 17 5.9209H19.7539Z" fill="currentColor" fill-opacity="0.8"/>
</g>
</svg>
