<svg preserveAspectRatio="none" overflow="visible" style="display: block;" width="24" height="24" viewBox="0 0 24 24" fill="none" xmlns="http://www.w3.org/2000/svg">
<g id="HarmonyOS Icon">
<path id="Union" d="M20.4473 3.01074C22.498 3.01075 23.5137 4.02638 23.5137 6.03809V17.9717C23.5137 19.9834 22.498 20.9892 20.4473 20.9893H3.55273C1.51173 20.9893 0.486341 19.9835 0.486328 17.9717V6.03809C0.486328 4.02637 1.51172 3.01074 3.55273 3.01074H20.4473ZM3.57227 4.58301C2.59571 4.58301 2.05859 5.11036 2.05859 6.12598V17.8838C2.05861 18.8995 2.59572 19.417 3.57227 19.417H20.4277C21.3945 19.417 21.9414 18.8995 21.9414 17.8838V6.12598C21.9414 5.11036 21.3945 4.58301 20.4277 4.58301H3.57227ZM13.1523 11.0088C13.5039 11.0088 13.7773 11.292 13.7773 11.6436C13.7773 11.9853 13.5039 12.2685 13.1523 12.2686H9.43164C9.08008 12.2686 8.80664 11.9854 8.80664 11.6436C8.80665 11.292 9.08009 11.0088 9.43164 11.0088H13.1523ZM4.68555 7.71777C3.91406 7.24902 4.56835 6.09668 5.4082 6.62402L8.2207 8.38184C8.74797 8.71387 8.77724 9.54392 8.2207 9.89551L5.4082 11.6533C4.56835 12.1807 3.92383 11.0186 4.68555 10.5596L7.03906 9.13379L4.68555 7.71777Z" fill="currentColor" fill-opacity="0.8"/>
</g>
</svg>
